<?xml version="1.0" encoding="utf-8"?>
<!-- Generator: Adobe Illustrator 16.0.4, SVG Export Plug-In . SVG Version: 6.00 Build 0)  -->
<!DOCTYPE svg PUBLIC "-//W3C//DTD SVG 1.1//EN" "http://www.w3.org/Graphics/SVG/1.1/DTD/svg11.dtd">
<svg version="1.1" xmlns="http://www.w3.org/2000/svg" xmlns:xlink="http://www.w3.org/1999/xlink" x="0px" y="0px" width="1024px"
	 height="1024px" viewBox="0 0 1024 1024" enable-background="new 0 0 1024 1024" xml:space="preserve">
<g id="Layer_1" display="none">
</g>
<g id="Layer_2" display="none">
	<path display="inline" d="M873.469,381.953c29.344,29.359,44.031,68.609,44.031,117.75c0,22.531-3.594,43.531-10.75,62.984
		c-7.172,19.469-16.391,37.562-27.656,54.281s-23.891,32.25-37.891,46.578c-14,14.344-27.469,28-40.438,40.969l-13.312,13.312
		c-13.656,13.641-21.688,24.906-24.062,33.781c-2.391,8.875-2.219,15.016,0.516,18.438c11.594,12.969,20.297,27.641,26.109,44.031
		c5.797,16.375,9.031,29.016,9.719,37.891s0.344,15.859-1.016,21c-1.375,5.109-3.766,9.375-7.172,12.781
		c-8.188,8.188-22.359,15.016-42.5,20.484c-20.141,5.453-43.172,9.891-69.109,13.312c-25.938,3.406-53.594,5.969-82.953,7.688
		c-29.359,1.688-57.688,2.547-84.984,2.547c-27.312,0-55.812-0.859-85.5-2.547c-29.703-1.719-57.688-4.281-83.969-7.688
		c-26.281-3.422-49.328-7.859-69.125-13.312c-19.797-5.469-33.797-12.297-41.984-20.484c-3.422-3.406-5.641-6.828-6.656-10.234
		c-1.031-3.422-1.531-6.156-1.531-8.188c0-18.438,3.062-36.031,9.203-52.734c6.141-16.734,15.016-31.578,26.641-44.547
		c3.406-3.422,3.906-9.562,1.531-18.438c-2.391-8.875-10.078-20.141-23.047-33.781l-14.328-13.312
		c-12.969-12.969-26.453-26.625-40.453-40.969c-14-14.328-26.625-29.859-37.891-46.578s-20.656-34.812-28.156-54.281
		c-7.516-19.453-11.266-40.453-11.266-62.984c0-49.141,14.844-88.391,44.547-117.75c29.688-29.344,69.109-44.031,118.266-44.031
		c12.969,0,27.312,2.047,43.016,6.141c15.688,4.094,32.078,10.422,49.141,18.953s33.797,19.281,50.188,32.25
		c16.375,12.969,31.406,28.672,45.062,47.094c-4.781-16.375-9.062-32.594-12.812-48.641c-3.75-16.031-6.141-31.047-7.172-45.047
		s-0.516-26.969,1.531-38.906s6.141-22.016,12.297-30.219c4.781-8.188,11.438-14.5,19.969-18.938s18.25-7.328,29.188-8.703v-67.594
		h-50.172v-24.578h50.172V92.156h24.578v67.578h53.25v24.578h-53.25v67.594c23.203,2.734,40.609,11.953,52.219,27.641
		c6.141,8.203,10.062,18.281,11.781,30.219c1.703,11.938,2.047,24.906,1.016,38.906s-3.422,29.016-7.172,45.047
		c-3.75,16.047-7.672,32.266-11.766,48.641c13.656-18.422,28.672-34.125,45.047-47.094s32.766-23.719,49.156-32.25
		c16.375-8.531,32.594-14.859,48.641-18.953c16.031-4.094,30.547-6.141,43.531-6.141
		C804.859,337.922,844.109,352.609,873.469,381.953z"/>
	<path display="inline" fill="#FFFFFF" stroke="#000000" stroke-miterlimit="10" d="M140.797,555.016
		c6.484,17.062,15.016,33.281,25.594,48.641s22.359,29.859,35.328,43.516s25.953,26.953,38.922,39.922l20.484,20.484
		c12.281-8.875,25.406-16.031,39.406-21.5c14-5.453,30.375-9.891,49.156-13.312c18.781-3.406,40.281-5.797,64.516-7.172
		c24.234-1.359,52.391-2.047,84.484-2.047c0-53.25-8.375-98.812-25.094-136.703c-16.719-37.875-37.031-68.938-60.922-93.172
		c-23.906-24.234-49.156-41.812-75.781-52.734s-49.5-16.391-68.609-16.391c-42.328,0-75.781,11.953-100.344,35.844
		c-24.578,23.891-36.859,57-36.859,99.312C131.078,519.516,134.312,537.953,140.797,555.016z"/>
	<path display="inline" d="M438.781,523.781c-13.312-30.375-29.703-55.297-49.156-74.75s-39.938-33.625-61.438-42.5
		s-40.109-13.312-55.797-13.312c-34.828,0-61.969,9.734-81.422,29.188s-29.172,46.25-29.172,80.375
		c0,15.703,2.719,30.547,8.188,44.547c5.453,14,12.453,27.312,20.984,39.938s18.094,24.578,28.672,35.844
		s20.984,22.016,31.234,32.25l15.359,16.375c9.562-6.812,20.141-12.609,31.75-17.391c11.594-4.781,25.078-8.531,40.438-11.266
		s32.766-4.781,52.234-6.156c19.453-1.359,42.156-2.047,68.094-2.047C458.75,591.188,452.094,554.156,438.781,523.781z"/>
	<path display="inline" fill="#FFFFFF" stroke="#000000" stroke-miterlimit="10" d="M627.703,832
		c32.094,2.375,58.719,5.281,79.875,8.703c21.156,3.406,37.031,7,47.625,10.75c10.578,3.75,16.891,6.984,18.938,9.734
		c2.719-7.516,2.047-17.766-2.047-30.734c-14.344-6.141-32.094-11.094-53.25-14.828c-21.156-3.766-43.688-6.5-67.578-8.203
		c-23.906-1.719-47.969-2.906-72.203-3.578c-24.234-0.703-46.594-1.031-67.062-1.031c-20.484,0-43.016,0.328-67.594,1.031
		c-24.578,0.672-48.812,1.859-72.703,3.578c-23.891,1.703-46.25,4.438-67.062,8.203c-20.828,3.734-38.062,8.688-51.719,14.828
		c-2.734,7.5-4.266,13.656-4.609,18.438s-0.172,8.875,0.516,12.297c2.047-2.75,8.531-5.984,19.453-9.734s26.969-7.344,48.125-10.75
		c21.156-3.422,47.781-6.328,79.875-8.703c32.094-2.406,70.656-3.594,115.719-3.594C557.047,828.406,595.609,829.594,627.703,832z"
		/>
	<path display="inline" fill="#FFFFFF" stroke="#000000" stroke-miterlimit="10" d="M512,753.656h24.578c22.531,0,44.031,0,64.516,0
		c20.469,0,39.75,1.016,57.844,3.078c18.094,2.047,34.469,5.453,49.156,10.25c14.672,4.766,27.469,11.594,38.406,20.469
		c-6.156-7.516-9.562-13.828-10.25-18.938c-0.688-5.141-0.344-10.422,1.031-15.875c-25.938-12.969-55.641-20.484-89.094-22.531
		c-33.453-2.062-70.656-2.734-111.609-2.047H512h-24.578c-40.281-0.688-77.312-0.016-111.109,2.047
		c-33.797,2.047-63.656,9.562-89.594,22.531c0.688,5.453,0.859,10.734,0.516,15.875c-0.344,5.109-3.938,11.422-10.75,18.938
		c22.516-17.062,52.203-27.141,89.078-30.203c36.859-3.078,77.484-4.281,121.859-3.594H512z"/>
	<path display="inline" fill="#FFFFFF" stroke="#000000" stroke-miterlimit="10" d="M456.703,331.766
		c0,21.859,4.094,46.781,12.281,74.766c8.188,28,16.391,54.953,24.578,80.891c3.406,10.25,6.656,20.141,9.734,29.703
		c3.062,9.562,5.969,18.766,8.703,27.641c2.047-8.875,4.609-18.078,7.672-27.641s6.312-19.453,9.734-29.703
		c9.562-25.938,17.922-52.891,25.094-80.891c7.156-27.984,10.75-52.906,10.75-74.766c0-8.188-0.688-15.688-2.047-22.516
		c-1.375-6.828-3.766-12.969-7.172-18.438c-8.188-11.594-22.875-17.406-44.031-17.406c-19.812,0-34.828,5.812-45.062,17.406
		C460.109,303.109,456.703,316.766,456.703,331.766z"/>
	<path display="inline" d="M500.734,409.609c-6.156-15.703-11.266-30.891-15.359-45.578c-4.094-14.672-5.125-27.469-3.078-38.391
		s11.266-16.391,27.656-16.391c17.062,0,26.609,5.469,28.672,16.391c2.047,10.922,1.016,23.719-3.078,38.391
		c-4.094,14.688-9.391,29.875-15.875,45.578s-9.719,28.328-9.719,37.875C509.953,437.938,506.875,425.312,500.734,409.609z"/>
	<path display="inline" fill="#FFFFFF" stroke="#000000" stroke-miterlimit="10" d="M821.25,647.172
		c12.969-13.656,24.734-28.156,35.328-43.516c10.578-15.359,19.281-31.578,26.109-48.641c6.812-17.062,10.234-35.5,10.234-55.312
		c0-42.312-12.297-75.422-36.859-99.312c-24.578-23.891-58.031-35.844-100.344-35.844c-19.812,0-43.016,5.469-69.641,16.391
		s-52.062,28.5-76.297,52.734s-44.891,55.297-61.953,93.172c-17.062,37.891-25.938,83.453-26.609,136.703
		c62.797,0,114,2.391,153.594,7.172s68.938,17.078,88.062,36.859l20.484-21.5C795.641,673.797,808.281,660.828,821.25,647.172z"/>
	<path display="inline" d="M801.781,623.109c10.922-11.266,20.656-23.219,29.188-35.844s15.531-25.938,21-39.938
		c5.453-14,8.188-28.844,8.188-44.547c0-34.125-9.906-60.922-29.703-80.375s-47.094-29.188-81.906-29.188
		c-15.719,0-34.312,4.438-55.812,13.312s-41.984,23.047-61.438,42.5c-19.469,19.453-35.844,44.375-49.156,74.75
		s-19.969,67.406-19.969,111.094c51.188,0.688,90.781,4.109,118.781,10.25c27.984,6.141,52.219,15.016,72.703,26.609l16.391-16.375
		C780.281,645.125,790.859,634.375,801.781,623.109z"/>
</g>
<g id="Layer_3" display="none">
	<path display="inline" d="M873.469,381.953c29.344,29.359,44.031,68.609,44.031,117.75c0,21.859-3.594,42.516-10.75,61.969
		c-7.172,19.453-16.391,37.547-27.656,54.266s-23.891,32.422-37.891,47.094c-14,14.688-27.469,28.516-40.438,41.484l-14.328,13.312
		c-13.656,13.641-21.688,24.906-24.078,33.781s-1.875,15.016,1.547,18.438c11.594,12.281,20.297,26.797,26.109,43.531
		c5.797,16.703,8.703,29.516,8.703,38.391s-0.344,15.859-1.031,21c-0.688,5.109-2.734,9.375-6.141,12.781
		c-8.188,8.188-22.359,15.016-42.5,20.484c-20.141,5.453-43.172,9.891-69.109,13.312c-25.938,3.406-53.594,5.969-82.953,7.688
		c-29.359,1.688-57.688,2.547-84.984,2.547c-27.312,0-55.812-0.859-85.5-2.547c-29.703-1.719-57.688-4.281-83.969-7.688
		c-26.281-3.422-49.328-7.859-69.125-13.312c-19.797-5.469-33.797-12.297-41.984-20.484c-3.422-3.406-5.641-6.828-6.656-10.234
		c-1.031-3.422-1.531-6.5-1.531-9.219c0-17.75,3.062-35,9.203-51.703c6.141-16.734,15.016-31.578,26.641-44.547
		c2.031-3.422,2.031-9.562-0.016-18.438s-9.547-20.141-22.516-33.781l-13.312-13.312c-13.656-12.969-27.312-26.625-40.969-40.969
		c-13.656-14.328-26.281-29.859-37.891-46.578s-21-34.812-28.156-54.281c-7.172-19.453-10.75-40.453-10.75-62.984
		c0-49.141,14.672-88.391,44.031-117.75c29.344-29.344,68.938-44.031,118.781-44.031c12.969,0,27.312,2.047,43.016,6.141
		c15.688,4.094,31.906,10.422,48.641,18.953c16.719,8.531,33.281,19.281,49.656,32.25s31.75,28.672,46.094,47.094
		c-10.25-32.75-17.25-63.984-21-93.688c-3.75-29.688,0.859-53.422,13.828-71.172c9.547-13.656,26.266-22.188,50.172-25.594v-67.594
		h-50.172v-24.578h50.172V92.156h24.578v67.578h52.219v24.578h-52.219v67.594c23.203,2.734,40.609,11.953,52.219,27.641
		c6.141,8.203,10.062,18.109,11.781,29.703c1.703,11.609,1.875,24.406,0.516,38.406c-1.375,14-4.109,28.844-8.203,44.531
		c-4.094,15.703-8.531,31.75-13.312,48.125c14.344-17.75,29.875-33.109,46.594-46.078s33.453-23.547,50.172-31.734
		s32.938-14.344,48.641-18.438s30.047-6.141,43.016-6.141C804.516,337.922,844.109,352.609,873.469,381.953z"/>
	<path display="inline" fill="#FFFFFF" stroke="#000000" stroke-miterlimit="10" d="M140.797,555.016
		c6.484,17.062,15.016,33.281,25.594,48.641s22.359,29.859,35.328,43.516s25.953,26.953,38.922,39.922l4.094,4.109
		c18.438-19.797,49.328-32.766,92.672-38.922c43.344-6.141,97.109-9.547,161.281-10.234c-1.375-49.156-10.594-91.312-27.656-126.469
		s-37.375-63.984-60.922-86.516c-23.562-22.531-48.312-38.906-74.25-49.156c-25.938-10.234-48.469-15.359-67.578-15.359
		c-43,0-76.625,11.953-100.859,35.844s-36.344,57-36.344,99.312C131.078,519.516,134.312,537.953,140.797,555.016z"/>
	<path display="inline" fill="#FFFFFF" stroke="#000000" stroke-miterlimit="10" d="M704,890.875
		c42.656-8.875,66.047-17.078,70.141-24.578c-2.734-2.734-9.391-5.984-19.969-9.719c-10.594-3.766-26.469-7.188-47.625-10.25
		c-21.156-3.078-47.609-5.641-79.359-7.672c-31.75-2.062-70.141-3.078-115.188-3.078c-45.75,0-84.656,1.188-116.734,3.594
		c-32.094,2.375-58.719,5.281-79.875,8.703c-21.172,3.391-37.047,6.812-47.625,10.234c-10.578,3.406-16.891,6.484-18.938,9.219
		c4.781,6.812,28.5,14.672,71.172,23.547c42.656,8.875,106.656,13.312,192,13.312C597.328,904.188,661.328,899.75,704,890.875z"/>
	<path display="inline" fill="#FFFFFF" stroke="#000000" stroke-miterlimit="10" d="M760.828,810.5
		c-4.781-8.547-9.906-16.234-15.359-23.047c-21.844-17.062-50.859-26.969-87.047-29.688c-36.188-2.75-76.453-4.109-120.828-4.109
		H512h-24.578c-45.062,0-85.844,1.359-122.375,4.109c-36.531,2.719-66.047,12.625-88.562,29.688
		c-5.469,7.5-10.422,15.359-14.859,23.562c-4.438,8.172-7.344,17.047-8.703,26.609c13.656-6.156,30.891-11.094,51.719-14.844
		c20.812-3.75,43.172-6.656,67.062-8.703c23.891-2.062,48.125-3.422,72.703-4.094c24.578-0.703,47.109-1.031,67.594-1.031
		c20.469,0,42.656,0.328,66.562,1.031c23.891,0.672,47.781,2.031,71.672,4.094c23.891,2.047,46.25,4.953,67.078,8.703
		c20.812,3.75,38.391,8.688,52.734,14.844C768.672,828.062,765.609,819.016,760.828,810.5z"/>
	<path display="inline" fill="#FFFFFF" stroke="#000000" stroke-miterlimit="10" d="M648.188,731.141
		c33.453,2.031,62.469,9.203,87.047,21.5c3.406-14.344,11.609-28.672,24.578-43.016c-8.875-9.547-21.859-17.047-38.922-22.516
		s-36.859-9.734-59.391-12.812c-22.531-3.062-46.594-4.938-72.188-5.625c-25.609-0.688-51.375-1.031-77.312-1.031
		c-28,0-55.125,0.344-81.406,1.031s-50.516,2.562-72.703,5.625c-22.188,3.078-41.656,7.344-58.375,12.812
		S270,700.078,261.125,709.625c7.5,6.844,13.312,14,17.406,21.516c4.094,7.484,6.812,14.656,8.188,21.5
		c25.25-12.297,54.953-19.469,89.094-21.5c34.125-2.062,71.328-3.078,111.609-3.078H512h25.594
		C577.875,728.062,614.734,729.078,648.188,731.141z"/>
	<path display="inline" fill="#FFFFFF" stroke="#000000" stroke-miterlimit="10" d="M458.75,309.25
		c-1.375,6.828-2.047,14.328-2.047,22.516c0,21.859,4.094,46.781,12.281,74.766c8.188,28,16.391,54.953,24.578,80.891
		c3.406,10.25,6.656,20.141,9.734,29.703c3.062,9.562,5.969,18.766,8.703,27.641c2.047-8.875,4.609-18.078,7.672-27.641
		s6.312-19.453,9.734-29.703c7.5-25.938,15.359-52.891,23.547-80.891c8.188-27.984,12.297-52.906,12.297-74.766
		c0-8.188-0.688-15.688-2.047-22.516c-1.375-6.828-3.766-12.969-7.172-18.438c-4.094-5.453-9.734-9.719-16.891-12.797
		c-7.172-3.062-16.219-4.609-27.141-4.609c-19.812,0-34.828,5.812-45.062,17.406C462.844,296.281,460.109,302.422,458.75,309.25z"/>
	<path display="inline" fill="#FFFFFF" stroke="#000000" stroke-miterlimit="10" d="M820.734,646.141
		c13.312-13.656,25.25-27.984,35.844-43c10.578-15.016,19.281-31.062,26.109-48.125c6.812-17.062,10.234-35.5,10.234-55.312
		c0-42.312-12.297-75.422-36.859-99.312c-24.578-23.891-58.375-35.844-101.375-35.844c-19.812,0-42.516,5.125-68.109,15.359
		c-25.594,10.25-50.172,26.625-73.719,49.156c-23.562,22.531-43.859,51.359-60.922,86.516s-26.625,77.312-28.672,126.469
		c62.797,0.688,116.219,4.094,160.25,10.234c44.031,6.156,75.266,19.125,93.703,38.922l4.094-5.125
		C794.281,673.109,807.422,659.797,820.734,646.141z"/>
</g>
<g id="Layer_4" display="none">
	<path display="inline" d="M941.562,223.234c11.938,11.609,17.922,25.938,17.922,43c0,15.703-5.984,29.531-17.922,41.469
		c-11.953,11.953-25.781,17.922-41.469,17.922h-2.047c-4.094,15.719-9.562,36.031-16.391,60.938
		c-6.828,24.922-14.172,51.375-22.016,79.359c-7.844,28-15.875,56.328-24.062,85s-15.875,54.953-23.031,78.844
		c-7.172,23.891-13.312,44.031-18.438,60.406c-5.125,16.391-8.703,25.953-10.75,28.672c-13.656,21.156-20.484,41.984-20.484,62.469
		c0,6.141,1.188,11.266,3.578,15.359s5.297,8.531,8.719,13.312c4.781,6.141,9.375,13.656,13.812,22.531s6.656,20.812,6.656,35.828
		c0,10.234-5.984,18.766-17.922,25.609c-11.938,6.812-27.125,12.453-45.562,16.891s-38.906,7.844-61.438,10.25
		c-22.531,2.375-44.391,4.25-65.547,5.625c-21.156,1.359-40.281,2.203-57.344,2.562c-17.062,0.328-29.688,0.5-37.875,0.5
		c-7.516,0-19.812-0.172-36.875-0.5c-17.062-0.359-36.016-1.031-56.828-2.047c-20.812-1.047-42.484-2.922-65.016-5.641
		c-22.531-2.734-42.844-6.312-60.938-10.75s-33.109-10.078-45.047-16.891c-11.953-6.844-17.922-15.375-17.922-25.609
		c0-15.016,2.219-26.953,6.656-35.828s8.703-16.391,12.797-22.531c4.094-4.781,7.328-9.219,9.719-13.312s3.594-9.219,3.594-15.359
		c0-21.172-7.172-42-21.5-62.469c-0.688-1.375-1.891-3.75-3.594-7.156s-4.609-12.109-8.703-26.109s-10.25-34.812-18.438-62.469
		s-19.109-66.047-32.75-115.203l-35.844-132.094c-4.094-12.281-7.172-22.359-9.219-30.203c-2.062-7.844-3.766-14.516-5.125-19.984
		h-2.047c-15.703,0-29.531-5.969-41.469-17.922c-11.953-11.938-17.922-25.766-17.922-41.469c0-17.062,5.969-31.391,17.922-43
		c11.938-11.594,25.766-17.406,41.469-17.406c16.375,0,30.547,5.812,42.5,17.406c11.938,11.609,17.922,25.938,17.922,43
		c0,11.609-3.078,21.844-9.219,30.719c-6.156,8.875-14,16.047-23.547,21.5l143.359,233.484V233.469
		c-13.656-3.406-24.922-10.406-33.797-20.984s-13.312-23.047-13.312-37.391c0-16.375,5.797-30.531,17.406-42.484
		c11.594-11.938,25.938-17.922,43.016-17.922c16.375,0,30.547,5.984,42.484,17.922c11.938,11.953,17.922,26.109,17.922,42.484
		c0,13.656-4.266,25.781-12.797,36.359c-8.531,10.594-18.953,17.578-31.234,20.984l108.547,305.156l65.531-327.672
		c-13.656-3.406-24.75-10.406-33.281-21c-8.531-10.578-12.797-22.688-12.797-36.344c0-16.375,5.797-30.547,17.406-42.5
		c11.609-11.938,25.266-17.922,40.969-17.922c17.75,0,32.422,5.984,44.031,17.922c11.594,11.953,17.406,26.125,17.406,42.5
		c0,13.656-4.266,25.766-12.797,36.344c-8.531,10.594-19.281,17.594-32.25,21l64.5,327.672l108.547-305.156
		c-12.297-3.406-22.703-10.391-31.234-20.984c-8.531-10.578-12.797-22.703-12.797-36.359c0-16.375,5.969-30.531,17.922-42.484
		c11.938-11.938,26.453-17.922,43.516-17.922c16.375,0,30.375,5.984,41.984,17.922c11.594,11.953,17.406,26.109,17.406,42.484
		c0,14.344-4.438,26.812-13.312,37.391s-19.797,17.578-32.766,20.984v318.469l142.344-233.484
		c-21.844-10.906-32.766-28.312-32.766-52.219c0-17.062,5.797-31.391,17.406-43c11.594-11.594,25.938-17.406,43-17.406
		C915.781,205.828,929.609,211.641,941.562,223.234z"/>
	<path display="inline" fill="#FFFFFF" stroke="#000000" stroke-miterlimit="10" d="M583.156,676.359
		c25.594,1.031,49.828,3.078,72.703,6.141s43.516,7.672,61.953,13.812c18.438,6.156,32.094,14,40.969,23.562l3.078-5.125
		c0.672-1.359,1.516-3.578,2.547-6.656c1.031-3.062,2.219-7,3.594-11.781c-17.75-16.375-47.453-28.328-89.094-35.828
		s-97.953-11.266-168.953-11.266c-69.641,0-125.109,3.766-166.406,11.266c-41.312,7.5-71.172,19.453-89.594,35.828
		c4.094,9.562,6.141,15.031,6.141,16.391c2.047,3.422,3.75,5.797,5.125,7.172c8.188-9.562,21.484-17.406,39.922-23.562
		c18.438-6.141,39.078-10.75,61.953-13.812s46.766-5.109,71.688-6.141c24.906-1.031,48.641-1.547,71.172-1.547
		C533.156,674.812,557.562,675.328,583.156,676.359z"/>
	<path display="inline" fill="#FFFFFF" stroke="#000000" stroke-miterlimit="10" d="M700.406,826.891
		c-24.578-3.766-49.328-6.672-74.234-8.719c-24.922-2.062-48.141-3.25-69.641-3.578c-21.5-0.359-37.031-0.516-46.578-0.516
		c-8.875,0-23.734,0.156-44.547,0.516c-20.828,0.328-43.703,1.516-68.609,3.578c-24.922,2.047-49.672,4.953-74.234,8.719
		c-24.578,3.734-45.062,9.031-61.438,15.859c-4.781,7.5-7.172,18.094-7.172,31.75c4.094-6.156,27.125-13.656,69.109-22.531
		s104.281-13.312,186.891-13.312c83.969,0,147.109,4.438,189.438,13.312c42.312,8.875,65.531,16.375,69.641,22.531
		c0-13.656-2.391-24.25-7.172-31.75C745.469,835.922,724.984,830.625,700.406,826.891z"/>
	<path display="inline" fill="#FFFFFF" stroke="#000000" stroke-miterlimit="10" d="M650.75,760.828
		c37.203,6.141,66.391,17.062,87.547,32.766v-6.141c0-3.422,0.172-7.016,0.516-10.75c0.344-3.766,0.859-7.688,1.547-11.781
		c-23.906-15.703-54.453-26.109-91.656-31.219c-37.219-5.141-82.438-7.688-135.672-7.688c-54.625,0-100.703,2.547-138.25,7.688
		c-37.547,5.109-68.266,15.516-92.156,31.219c0.672,4.781,1.188,8.875,1.531,12.297c0.344,3.391,0.516,6.812,0.516,10.234v6.141
		c21.156-15.703,50.688-26.625,88.578-32.766c37.875-6.156,84.469-9.219,139.781-9.219
		C567.625,751.609,613.531,754.672,650.75,760.828z"/>
</g>
<g id="Layer_5" display="none">
	<path display="inline" d="M900.094,204.797c15.688,0,29.516,5.984,41.469,17.922c11.938,11.953,17.922,25.781,17.922,41.469
		c0,17.062-5.984,31.406-17.922,43.016c-11.953,11.609-25.781,17.406-41.469,17.406h-2.047
		c-4.094,15.703-9.391,36.016-15.875,60.922c-6.484,24.922-13.656,51.547-21.5,79.875c-7.859,28.344-15.891,57.016-24.078,86.016
		c-8.188,29.016-15.875,55.469-23.031,79.359c-7.172,23.906-13.484,43.875-18.938,59.906c-5.469,16.047-9.219,25.094-11.266,27.141
		c-13.656,19.781-20.484,40.609-20.484,62.453c0,8.875,4.094,18.422,12.297,28.672c4.094,6.141,8.359,13.656,12.797,22.531
		s6.656,20.812,6.656,35.844c0,9.547-5.984,17.734-17.922,24.578c-11.953,6.812-27.141,12.453-45.578,16.891
		s-38.734,8.016-60.922,10.75c-22.188,2.719-43.875,4.766-65.031,6.141c-21.156,1.359-40.281,2.219-57.344,2.562
		s-29.688,0.516-37.875,0.516c-7.516,0-19.812-0.172-36.875-0.516s-36.016-1.203-56.828-2.562
		c-20.812-1.375-42.484-3.422-65.016-6.141c-22.531-2.734-42.844-6.312-60.938-10.75s-33.109-10.078-45.047-16.891
		c-11.953-6.844-17.922-15.031-17.922-24.578c0-15.031,2.219-26.969,6.656-35.844s8.703-16.391,12.797-22.531
		c8.875-9.562,13.312-19.109,13.312-28.672c0-21.156-7.172-41.984-21.5-62.453c-0.688-0.688-1.719-2.906-3.078-6.656
		c-1.375-3.75-4.266-12.453-8.703-26.109s-10.766-34.297-18.953-61.953s-19.109-66.047-32.75-115.203l-36.875-132.094
		c-3.406-12.281-6.484-22.703-9.219-31.234s-4.781-15.188-6.141-19.969c-16.391,0-30.391-5.797-41.984-17.406
		c-11.609-11.609-17.406-25.953-17.406-43.016c0-15.688,5.797-29.516,17.406-41.469c11.594-11.938,25.594-17.922,41.984-17.922
		c16.375,0,30.547,5.984,42.5,17.922c11.938,11.953,17.922,25.781,17.922,41.469c0,12.297-3.078,23.047-9.219,32.266
		c-6.156,9.219-14,16.547-23.547,22l143.359,233.484v-319.5c-13.656-2.719-25.094-9.375-34.312-19.953s-13.812-23.047-13.812-37.391
		c0-17.062,5.969-31.391,17.906-43c11.938-11.594,25.766-17.406,41.484-17.406c17.75,0,32.25,5.812,43.516,17.406
		c11.25,11.609,16.891,25.938,16.891,43c0,13.656-4.109,25.781-12.297,36.359c-8.188,10.594-18.422,17.578-30.703,20.984
		l108.547,305.156l64.5-327.672c-12.281-3.406-22.859-10.406-31.734-21c-8.875-10.578-13.312-22.688-13.312-36.344
		c0-17.062,5.969-31.406,17.922-43.016c11.938-11.594,25.766-17.406,41.469-17.406c17.062,0,31.562,5.812,43.516,17.406
		c11.938,11.609,17.922,25.953,17.922,43.016c0,13.656-4.266,25.766-12.797,36.344c-8.531,10.594-19.281,17.594-32.25,21
		l64.5,327.672l108.547-305.156c-12.297-3.406-22.703-10.391-31.234-20.984c-8.531-10.578-12.797-22.703-12.797-36.359
		c0-17.062,5.797-31.391,17.406-43c11.594-11.594,26.281-17.406,44.031-17.406c15.703,0,29.531,5.812,41.469,17.406
		c11.938,11.609,17.922,25.938,17.922,43c0,14.344-4.609,26.812-13.828,37.391s-20.641,17.234-34.297,19.953v319.5l143.359-233.484
		c-21.156-10.906-31.734-29-31.734-54.266c0-15.688,5.797-29.516,17.406-41.469C868.688,210.781,883.031,204.797,900.094,204.797z"
		/>
	<path display="inline" fill="#FFFFFF" stroke="#000000" stroke-miterlimit="10" d="M89.094,264.188
		c0,10.25,3.234,18.609,9.719,25.094s14.5,9.719,24.062,9.719s17.75-3.234,24.578-9.719s10.25-14.844,10.25-25.094
		c0-9.547-3.422-17.562-10.25-24.062c-6.828-6.484-15.016-9.734-24.578-9.734s-17.578,3.25-24.062,9.734
		C92.328,246.625,89.094,254.641,89.094,264.188z"/>
	<path display="inline" fill="#FFFFFF" stroke="#000000" stroke-miterlimit="10" d="M169.984,396.281
		c8.875,34.828,18.938,72.031,30.203,111.625s22.016,75.781,32.266,108.531c7.5-4.094,16.203-7.844,26.109-11.25
		c9.891-3.406,20.641-6.828,32.25-10.25c-4.094-6.812-10.75-17.734-19.969-32.766c-9.219-15.016-19.625-31.906-31.234-50.688
		c-11.609-18.766-23.562-38.219-35.844-58.359S180.219,414.031,169.984,396.281z"/>
	<path display="inline" fill="#FFFFFF" stroke="#000000" stroke-miterlimit="10" d="M509.953,642.047
		c71.672,0,127.984,3.594,168.953,10.75c40.969,7.172,70.656,19.297,89.094,36.359c2.719-6.141,5.109-12.969,7.156-20.484
		c2.047-7.5,4.781-16.375,8.203-26.625c-10.938-6.812-25.438-12.797-43.531-17.922s-38.906-9.562-62.453-13.312
		c-23.562-3.75-49.156-6.469-76.797-8.188c-27.656-1.703-56.828-2.562-87.547-2.562c-25.266,0-51.375,0.688-78.344,2.047
		c-26.969,1.375-52.75,3.766-77.312,7.172c-24.578,3.406-47.281,7.844-68.094,13.312c-20.828,5.469-37.391,11.953-49.672,19.453
		c2.734,10.25,5.125,19.125,7.172,26.625c2.047,7.516,4.438,14.344,7.172,20.484c18.422-17.062,48.109-29.188,89.078-36.359
		C384,645.641,439.641,642.047,509.953,642.047z"/>
	<path display="inline" fill="#FFFFFF" stroke="#000000" stroke-miterlimit="10" d="M509.953,903.172
		c83.969,0,147.109-4.438,189.438-13.312c42.312-8.875,65.531-16.391,69.641-22.531c-4.109-7.516-27.328-15.547-69.641-24.062
		c-42.328-8.547-105.469-12.812-189.438-12.812c-82.609,0-144.906,4.266-186.891,12.812c-41.984,8.516-65.359,16.547-70.141,24.062
		c4.094,6.141,26.969,13.656,68.609,22.531S425.984,903.172,509.953,903.172z"/>
	<path display="inline" fill="#FFFFFF" stroke="#000000" stroke-miterlimit="10" d="M509.953,738.297
		c-108.547,0-183.984,16.031-226.312,48.125c-0.688,8.188-2.734,15.188-6.141,21c-3.406,5.797-6.828,11.094-10.234,15.875
		c-1.375,2.031-2.562,3.906-3.594,5.625c-1.031,1.703-2.219,3.922-3.578,6.656c16.375-6.828,37.031-12.297,61.953-16.375
		c24.906-4.109,49.828-7.188,74.75-9.219c24.906-2.062,47.781-3.422,68.609-4.094c20.812-0.703,35.672-1.031,44.547-1.031
		c9.547,0,24.906,0.328,46.078,1.031c21.156,0.672,44.203,2.031,69.125,4.094c24.906,2.031,49.828,5.109,74.75,9.219
		c24.906,4.078,45.562,9.547,61.953,16.375c-1.375-2.734-2.562-4.953-3.594-6.656c-1.031-1.719-2.219-3.594-3.578-5.625
		c-3.422-4.781-6.844-10.078-10.25-15.875c-3.406-5.812-5.453-12.812-6.141-21C695.969,754.328,619.859,738.297,509.953,738.297z"/>
	<path display="inline" fill="#FFFFFF" stroke="#000000" stroke-miterlimit="10" d="M509.953,667.641
		c-21.844,0-45.406,0.516-70.656,1.547c-25.266,1.031-49.5,3.078-72.703,6.141c-23.219,3.078-43.859,7.516-61.953,13.312
		c-18.094,5.812-31.234,13.828-39.422,24.062c4.094,6.141,7.328,13.312,9.719,21.516c2.391,8.172,4.953,16.031,7.688,23.531
		c23.891-15.703,54.438-26.453,91.641-32.25c37.203-5.812,82.438-8.703,135.688-8.703c55.281,0,101.359,2.891,138.234,8.703
		c36.859,5.797,67.234,16.547,91.141,32.25c2.719-7.5,5.453-15.359,8.188-23.531c2.719-8.203,6.484-15.375,11.266-21.516
		c-9.562-10.234-23.547-18.25-41.984-24.062c-18.438-5.797-39.25-10.234-62.469-13.312c-23.219-3.062-47.453-5.109-72.703-6.141
		S532.484,667.641,509.953,667.641z"/>
	<path display="inline" fill="#FFFFFF" stroke="#000000" stroke-miterlimit="10" d="M270.344,175.094
		c0,9.562,3.578,17.766,10.75,24.594c7.156,6.828,15.188,10.234,24.062,10.234c10.234,0,18.766-3.406,25.594-10.234
		c6.812-6.828,10.234-15.031,10.234-24.594c0-10.234-3.422-18.594-10.234-25.078c-6.828-6.484-15.359-9.734-25.594-9.734
		c-8.875,0-16.906,3.25-24.062,9.734C273.922,156.5,270.344,164.859,270.344,175.094z"/>
	<path display="inline" fill="#FFFFFF" stroke="#000000" stroke-miterlimit="10" d="M318.469,589.828
		c16.375-3.406,33.109-5.969,50.172-7.688c17.062-1.703,33.438-3.234,49.156-4.609l-99.328-283.641V589.828z"/>
	<path display="inline" fill="#FFFFFF" stroke="#000000" stroke-miterlimit="10" d="M449.531,576.516
		c6.828-0.688,12.969-1.031,18.438-1.031c6.141,0,11.938,0,17.406,0h24.578h27.641c5.469,0,10.922,0,16.391,0
		c6.141,0,12.281,0.344,18.438,1.031l-62.469-313.344L449.531,576.516z"/>
	<path display="inline" fill="#FFFFFF" stroke="#000000" stroke-miterlimit="10" d="M475.141,152.578
		c0,9.562,3.578,17.578,10.75,24.062c7.156,6.484,15.188,9.719,24.062,9.719c9.547,0,18.078-3.234,25.594-9.719
		c7.5-6.484,11.266-14.5,11.266-24.062c0-10.234-3.766-18.594-11.266-25.094c-7.516-6.484-16.047-9.734-25.594-9.734
		c-8.875,0-16.906,3.25-24.062,9.734C478.719,133.984,475.141,142.344,475.141,152.578z"/>
	<path display="inline" fill="#FFFFFF" stroke="#000000" stroke-miterlimit="10" d="M604.156,577.531
		c15.703,1.375,32.094,2.906,49.156,4.609c17.062,1.719,33.781,4.281,50.172,7.688V293.891L604.156,577.531z"/>
	<path display="inline" fill="#FFFFFF" stroke="#000000" stroke-miterlimit="10" d="M680.953,175.094
		c0,9.562,3.578,17.766,10.75,24.594s15.531,10.234,25.094,10.234c8.875,0,16.891-3.406,24.062-10.234
		c7.156-6.828,10.75-15.031,10.75-24.594c0-10.234-3.594-18.594-10.75-25.078c-7.172-6.484-15.188-9.734-24.062-9.734
		c-9.562,0-17.922,3.25-25.094,9.734S680.953,164.859,680.953,175.094z"/>
	<path display="inline" fill="#FFFFFF" stroke="#000000" stroke-miterlimit="10" d="M790.531,616.438
		c8.875-29.344,18.594-63.141,29.172-101.375c10.578-38.219,21.672-77.812,33.281-118.781c-10.25,17.75-21.516,36.703-33.797,56.844
		s-24.062,39.594-35.328,58.359c-11.266,18.781-21.672,35.672-31.234,50.688c-9.562,15.031-16.375,25.953-20.469,32.766
		c10.922,3.422,21.5,6.844,31.75,10.25C774.141,608.594,783.016,612.344,790.531,616.438z"/>
	<path display="inline" fill="#FFFFFF" stroke="#000000" stroke-miterlimit="10" d="M900.094,299c9.562,0,17.75-3.234,24.578-9.719
		c6.812-6.484,10.234-14.844,10.234-25.094c0-9.547-3.422-17.562-10.234-24.062c-6.828-6.484-15.016-9.734-24.578-9.734
		c-10.25,0-18.609,3.938-25.094,11.781c-6.484,7.859-9.719,15.203-9.719,22.016c0,10.25,3.234,18.609,9.719,25.094
		S889.844,299,900.094,299z"/>
</g>
<g id="Layer_6" display="none">
	<path display="inline" d="M837.625,799.734v97.281H185.344v-97.281h62.469c0-53.25,3.406-83.094,10.234-89.594
		c6.812-6.484,14.5-13.828,23.031-22.016s16.734-16.203,24.578-24.062c7.844-7.844,12.453-12.797,13.828-14.844V363.516
		c-1.375-1.359-5.984-5.969-13.828-13.812s-16.203-16.047-25.078-24.578s-20.141-19.625-33.797-33.281V124.922h119.812v71.688
		h76.797v-71.688h135.172v71.688h76.797v-71.688h120.828c0,111.281-3.422,170.344-10.234,177.156
		c-6.828,6.828-14.672,14.516-23.547,23.047s-17.078,16.734-24.578,24.578c-7.516,7.844-11.953,12.453-13.312,13.812v285.703
		c1.359,2.047,5.797,7,13.312,14.844c7.5,7.859,15.359,15.875,23.547,24.062s19.109,18.781,32.766,31.75v79.859H837.625z"/>
	<polygon display="inline" fill="#FFFFFF" stroke="#000000" stroke-miterlimit="10" points="739.328,291.844 739.328,276.484 
		282.625,276.484 282.625,291.844 297.984,305.156 723.969,305.156 	"/>
	
		<rect x="282.625" y="772.094" display="inline" fill="#FFFFFF" stroke="#000000" stroke-miterlimit="10" width="456.703" height="28.672"/>
	<polygon display="inline" fill="#FFFFFF" stroke="#000000" stroke-miterlimit="10" points="741.375,718.844 724.984,704.516 
		299.016,704.516 283.641,718.844 283.641,733.188 741.375,733.188 	"/>
	
		<rect x="346.109" y="364.547" display="inline" fill="#FFFFFF" stroke="#000000" stroke-miterlimit="10" width="328.703" height="29.688"/>
	
		<rect x="346.109" y="620.547" display="inline" fill="#FFFFFF" stroke="#000000" stroke-miterlimit="10" width="328.703" height="28.672"/>
</g>
<g id="Layer_7" display="none">
	<path display="inline" d="M249.859,800.766c0-53.938,3.406-84.125,10.234-90.625c6.828-6.484,14.516-13.828,23.047-22.016
		s16.719-16.031,24.562-23.547c7.844-7.5,12.797-11.938,14.859-13.312V365.562c-2.062-1.359-7.016-5.969-14.859-13.812
		s-16.203-16.047-25.078-24.578s-20.141-19.969-33.797-34.312V124.922h118.781v74.75h77.828v-74.75h133.125v74.75h77.828v-74.75
		h118.781c0,111.969-3.422,171.531-10.25,178.688c-6.828,7.172-14.5,15.031-23.031,23.562s-16.734,16.734-24.578,24.578
		c-7.859,7.844-12.469,12.453-13.828,13.812v285.703c1.359,1.375,5.797,5.812,13.312,13.312c7.5,7.516,15.531,15.359,24.062,23.547
		s19.625,18.781,33.281,31.75v80.891h62.469v96.25H187.391v-96.25H249.859z"/>
	
		<rect x="210.938" y="824.312" display="inline" fill="#FFFFFF" stroke="#000000" stroke-miterlimit="10" width="603.141" height="49.156"/>
	<polygon display="inline" fill="#FFFFFF" stroke="#000000" stroke-miterlimit="10" points="751.609,276.484 751.609,148.484 
		679.938,148.484 679.938,223.234 555.016,223.234 555.016,148.484 468.984,148.484 468.984,223.234 344.062,223.234 
		344.062,148.484 272.391,148.484 272.391,276.484 	"/>
	
		<rect x="273.406" y="737.281" display="inline" fill="#FFFFFF" stroke="#000000" stroke-miterlimit="10" width="477.188" height="63.484"/>
	<path display="inline" fill="#FFFFFF" stroke="#000000" stroke-miterlimit="10" d="M288.766,300.031
		c7.5,7.516,16.203,16.047,26.109,25.609s17.578,17.406,23.047,23.547h350.203c4.781-6.141,11.938-13.984,21.5-23.547
		s18.094-18.094,25.609-25.609H288.766z"/>
	<path display="inline" fill="#FFFFFF" stroke="#000000" stroke-miterlimit="10" d="M734.203,714.75l-46.078-46.078H337.922
		c-5.469,4.781-12.969,11.781-22.531,21s-18.094,17.578-25.594,25.078H734.203z"/>
	
		<rect x="345.094" y="372.734" display="inline" fill="#FFFFFF" stroke="#000000" stroke-miterlimit="10" width="334.844" height="272.375"/>
</g>
<g id="Layer_8" display="none">
	<path display="inline" d="M680.438,647.672c6.484,11.953,9.734,23.391,9.734,34.312V683v23.562c0,6.141-2.734,11.422-8.188,15.859
		c-5.469,4.438-12.469,8.359-21,11.781c-8.531,3.406-18.438,6.312-29.688,8.719c-11.266,2.375-22.703,4.25-34.312,5.625
		c1.375,9.547,4.438,17.219,9.219,23.031c4.781,5.797,10.062,10.062,15.875,12.812c5.797,2.719,11.594,4.422,17.406,5.125
		c5.797,0.672,10.406,1.016,13.828,1.016c0.688,0,8.016-0.344,22.016-1.016c13.984-0.703,28.828-3.766,44.547-9.234
		c10.234-4.781,22.688-9.047,37.375-12.797c14.672-3.75,25.766-5.625,33.281-5.625c46.406,0,86,15.016,118.781,45.047l7.172,6.141
		l-50.188,102.406l-11.25-10.234c-30.047-26.625-64.859-39.938-104.453-39.938c-5.469,0-14.516,1.531-27.141,4.609
		c-12.625,3.062-24.062,6.656-34.297,10.75c-8.875,4.094-17.594,6.984-26.125,8.703c-8.531,1.703-16.391,2.891-23.547,3.594
		c-7.172,0.672-13.141,1.016-17.922,1.016s-7.5,0-8.188,0c-15.031,0-32.781-4.953-53.25-14.844
		c-20.484-9.922-36.531-22.719-48.125-38.406c-5.469,8.188-12.469,15.688-21,22.531c-8.531,6.812-17.578,12.625-27.141,17.406
		s-18.938,8.531-28.156,11.266c-9.219,2.719-17.234,4.094-24.062,4.094c-2.047,0-11.094-0.516-27.125-1.531
		c-16.047-1.047-32.609-5.312-49.672-12.812c-10.922-4.094-22.703-7.859-35.328-11.25c-12.625-3.422-21.672-5.125-27.125-5.125
		c-40.969,0-75.797,13.312-104.453,39.938l-11.266,10.234L106.5,813.047l7.156-6.141c33.453-29.359,73.047-44.031,118.797-44.031
		c8.188,0,19.438,1.875,33.781,5.641c14.344,3.734,26.969,7.672,37.891,11.766c7.5,3.406,15.188,5.797,23.031,7.172
		c7.844,1.359,14.844,2.219,21,2.562c6.141,0.344,11.266,0.516,15.359,0.516c4.781,0,7.516,0,8.203,0
		c12.969,0,24.906-3.078,35.828-9.219c10.922-6.156,17.75-17.078,20.484-32.766c-11.609-1.375-23.047-3.25-34.312-5.625
		c-11.266-2.406-21.328-5.312-30.203-8.719c-8.875-3.422-16.047-7.344-21.5-11.781c-5.469-4.438-8.188-9.719-8.188-15.859v-24.578
		c0-21.844,8.531-41.641,25.594-59.391c1.359-2.047,2.547-3.406,3.578-4.094s2.219-1.703,3.594-3.078
		c0.672-2.719-0.359-8.016-3.078-15.875c-2.734-7.844-9.906-16.547-21.5-26.109c-38.234-32.766-57.344-78.844-57.344-138.234
		c0-19.797,3.578-37.547,10.75-53.25c7.156-15.703,16.031-29.531,26.625-41.469c10.578-11.938,21.844-22.016,33.797-30.203
		c11.938-8.188,22.688-14.688,32.25-19.469c43-21.844,72.016-41.297,87.047-58.375c-9.562-5.453-17.766-13.641-24.594-24.562
		S440.312,184.656,440.312,171c0-19.781,6.984-36.672,20.984-50.672s30.891-21,50.703-21c19.797,0,36.688,7,50.688,21
		s21,30.891,21,50.672c0,13.656-3.422,25.609-10.25,35.844c-6.828,10.25-15.359,18.781-25.594,25.594
		c8.188,8.875,19.266,17.922,33.266,27.141s31.922,19.641,53.766,31.234c9.562,4.781,20.312,11.281,32.266,19.469
		c11.938,8.188,23.203,18.266,33.781,30.203s19.453,25.766,26.625,41.469c7.156,15.703,10.75,33.453,10.75,53.25
		c0,60.078-19.125,106.156-57.344,138.234c-11.609,9.562-18.781,18.438-21.5,26.625c-2.734,8.188-3.75,13.312-3.062,15.359
		C665.938,624.984,673.953,635.734,680.438,647.672z"/>
	<path display="inline" fill="#FFFFFF" stroke="#000000" stroke-miterlimit="10" d="M619,685.562
		c26.281,5.812,41.812,11.438,46.594,16.891c0.688-4.766,1.188-8.688,1.531-11.766c0.344-3.062-0.172-8.016-1.531-14.844
		c-11.609-4.781-25.438-8.703-41.469-11.781c-16.047-3.062-31.75-5.281-47.109-6.656c-15.359-1.359-29.188-2.219-41.469-2.562
		s-20.141-0.516-23.547-0.516c-3.422,0-11.281,0.172-23.562,0.516s-26.281,1.203-41.984,2.562
		c-15.703,1.375-31.578,3.594-47.609,6.656c-16.047,3.078-29.875,7-41.469,11.781c-1.375,6.828-1.875,11.781-1.531,14.844
		c0.344,3.078,1.188,7,2.562,11.766c4.094-5.453,19.453-11.078,46.078-16.891c26.625-5.797,62.453-8.703,107.516-8.703
		C557.047,676.859,592.719,679.766,619,685.562z"/>
	<path display="inline" fill="#FFFFFF" stroke="#000000" stroke-miterlimit="10" d="M588.281,607.75
		c23.547,7.172,42.5,18.266,56.844,33.266c-6.156-7.5-9.906-14.328-11.266-20.469c-1.375-6.141-1.375-11.938,0-17.406
		c-33.453-19.797-74.078-29.703-121.859-29.703c-48.469,0-89.781,9.906-123.906,29.703c4.781,11.609,1.703,24.234-9.219,37.875
		c13.656-15,32.25-26.094,55.812-33.266C458.234,600.578,484,596.984,512,596.984C539.297,596.984,564.719,600.578,588.281,607.75z"
		/>
	<path display="inline" fill="#FFFFFF" stroke="#000000" stroke-miterlimit="10" d="M526.344,393.219v-67.594
		c0-10.906-5.469-16.375-16.391-16.375c-3.422,0-6.5,1.547-9.219,4.609c-2.734,3.062-4.094,6.984-4.094,11.766v67.594h-67.578
		c-4.109,0-7.703,1.547-10.766,4.609s-4.594,6.656-4.594,10.75s1.531,7.516,4.594,10.234c3.062,2.734,6.656,4.094,10.766,4.094
		h67.578v68.609c0,4.094,1.359,7.516,4.094,10.25c2.719,2.734,5.797,4.094,9.219,4.094c10.922,0,16.391-4.781,16.391-14.344v-68.609
		h68.594c9.562,0,14.344-4.766,14.344-14.328c0-4.094-1.375-7.688-4.094-10.75c-2.734-3.062-6.156-4.609-10.25-4.609H526.344z"/>
	<path display="inline" fill="#FFFFFF" stroke="#000000" stroke-miterlimit="10" d="M471.547,780.297
		c11.266,0.672,21,1.016,29.188,1.016v-26.625c-8.188,0-16.719-0.172-25.594-0.516s-18.094-1.203-27.656-2.562
		c-0.688,5.469-1.875,10.25-3.578,14.344c-1.719,4.094-3.25,7.844-4.609,11.266C449.531,778.578,460.281,779.594,471.547,780.297z"
		/>
	<path display="inline" fill="#FFFFFF" stroke="#000000" stroke-miterlimit="10" d="M547.328,754.172
		c-8.531,0.344-16.906,0.516-25.094,0.516v26.625c8.188,0,18.094-0.344,29.703-1.016c11.594-0.703,22.188-1.719,31.75-3.078
		c-1.375-3.422-3.094-7.172-5.141-11.266s-3.406-8.875-4.078-14.344C564.906,752.969,555.859,753.828,547.328,754.172z"/>
</g>
<g id="Layer_9" display="none">
	<path display="inline" d="M360.453,611.328c1.359-1.359,2.547-2.547,3.578-3.578c1.016-1.031,2.203-2.219,3.578-3.594
		c0.688-2.047-0.344-7.344-3.062-15.875c-2.734-8.531-9.906-17.562-21.5-27.125c-38.234-31.406-57.344-76.453-57.344-135.172
		c0-19.797,3.578-37.547,10.75-53.25c7.156-15.688,16.031-29.516,26.609-41.469c10.578-11.938,21.844-22.016,33.797-30.203
		c11.938-8.188,22.703-14.688,32.266-19.469c21.844-12.281,39.922-23.031,54.266-32.25c14.328-9.219,25.25-18.266,32.766-27.141
		c-10.25-5.453-18.609-13.469-25.094-24.062c-6.484-10.578-9.719-22.703-9.719-36.359c0-19.781,6.984-36.672,20.984-50.672
		s30.547-21,49.672-21c19.797,0,36.688,7,50.688,21s21,30.891,21,50.672c0,13.656-3.25,25.781-9.734,36.359
		c-6.5,10.594-15.203,18.609-26.109,24.062c8.188,8.875,19.266,17.922,33.266,27.141s32.266,19.969,54.797,32.25
		c9.547,4.781,20.297,11.281,32.25,19.469c11.938,8.188,23.203,18.266,33.797,30.203c10.578,11.953,19.453,25.781,26.625,41.469
		c7.156,15.703,10.75,33.453,10.75,53.25c0,58.031-19.125,103.078-57.344,135.172c-11.609,9.562-18.953,18.766-22.016,27.641
		c-3.078,8.875-4.438,13.656-4.094,14.344s1.188,1.531,2.562,2.562c1.359,1.031,2.719,2.219,4.094,3.578
		c19.109,20.484,28.672,41.641,28.672,63.484v22.531v1.016c0,11.609-8.547,20.484-25.609,26.625s-35.844,10.922-56.312,14.344
		c0.672,6.812,2.719,12.281,6.141,16.391c3.406,4.078,7.172,7.156,11.266,9.219c4.094,2.031,8.531,3.391,13.312,4.094
		c4.781,0.672,9.219,1.016,13.312,1.016c0.688,0,7.516-0.172,20.484-0.516s26.609-3.25,40.953-8.703
		c11.594-4.781,24.906-9.219,39.938-13.312c15.016-4.094,26.969-6.141,35.844-6.141c24.562,0,47.609,4.094,69.109,12.297
		c21.5,8.172,41.141,20.125,58.891,35.828l12.281,12.281l-60.406,124.938l-23.562-21.5c-26.625-24.594-58.375-36.875-95.234-36.875
		c-4.094,0-12.125,1.531-24.062,4.609c-11.953,3.062-23.391,6.656-34.297,10.75c-17.75,7.5-34.828,11.766-51.203,12.812
		c-16.391,1.016-25.953,1.188-28.672,0.5c-15.031,0-32.266-4.266-51.719-12.797s-36-19.969-49.656-34.297
		c-12.969,15.688-29.359,27.641-49.156,35.844C443.047,891.891,425.984,896,411.641,896c-3.406,0-13.141-0.344-29.172-1.016
		c-16.047-0.703-33.281-4.797-51.719-12.297c-10.25-4.094-21.516-7.688-33.797-10.75c-12.281-3.078-20.469-4.609-24.562-4.609
		c-36.875,0-68.281,11.938-94.219,35.844l-24.578,21.5L93.188,799.734l13.312-12.281c17.75-15.703,37.203-27.656,58.359-35.828
		c21.156-8.203,43.688-12.297,67.594-12.297c9.547,0,21.828,2.219,36.859,6.656c15.016,4.438,28.328,8.703,39.938,12.797
		c14.328,6.141,28.156,9.375,41.469,9.734c13.312,0.328,20.641,0.5,22.016,0.5c2.719,0,6.312-0.344,10.75-1.016
		c4.438-0.703,8.875-2.062,13.312-4.094c4.438-2.062,8.531-5.125,12.281-9.219s6.312-9.906,7.688-17.406
		c-21.844-3.422-41.141-8.203-57.859-14.344s-25.078-15.016-25.078-26.625v-23.547C333.828,650.922,342.703,630.453,360.453,611.328
		z"/>
	<path display="inline" fill="#FFFFFF" stroke="#000000" stroke-miterlimit="10" d="M501.766,743.422
		c-6.156,0-15.375-0.172-27.656-0.516s-23.547-1.203-33.797-2.562c0,11.594-1.875,20.812-5.625,27.656
		c-3.75,6.812-8.703,11.938-14.844,15.359c-6.156,3.406-13.328,5.797-21.516,7.172c-8.188,1.359-16.719,2.047-25.594,2.047
		c-0.688,0-4.438,0-11.266,0s-16.047-0.859-27.641-2.562c-11.609-1.719-22.531-4.609-32.766-8.703
		c-11.625-4.094-24.078-7.859-37.391-11.266c-13.312-3.422-23.719-5.125-31.219-5.125c-19.125,0-37.891,3.062-56.328,9.219
		c-18.438,6.141-36.188,16.375-53.25,30.719l37.891,78.844c33.438-29.359,70.656-44.031,111.625-44.031
		c6.812,0,16.891,1.703,30.203,5.125c13.312,3.406,25.422,7.5,36.344,12.281c17.75,7.5,34.125,11.266,49.156,11.266
		c15.016,0,22.859,0,23.547,0c8.188,0,17.578-1.547,28.172-4.594c10.578-3.078,20.469-7.688,29.688-13.828
		c9.219-6.156,16.891-14.172,23.047-24.062c6.141-9.922,9.219-21.688,9.219-35.328V743.422z"/>
	<path display="inline" fill="#FFFFFF" stroke="#000000" stroke-miterlimit="10" d="M379.391,566.266
		c5.125,7.516,8.359,14.688,9.734,21.5c17.062-9.547,36-17.047,56.828-22.516c20.812-5.469,42.828-8.203,66.047-8.203
		c23.891,0,46.422,2.734,67.578,8.203s39.594,13.312,55.297,23.547c2.047-7.5,5.453-15.016,10.234-22.531
		c4.781-7.5,11.953-15.016,21.516-22.531c32.078-27.297,48.125-66.547,48.125-117.75c0-17.062-3.078-32.266-9.219-45.578
		c-6.156-13.312-13.828-25.078-23.047-35.328c-9.219-10.234-18.938-18.938-29.172-26.109c-10.25-7.156-19.797-13.141-28.672-17.922
		c-26.625-13.641-47.797-25.75-63.5-36.344c-15.703-10.578-27.984-21.672-36.859-33.281c-2.047,0-4.094,0.172-6.141,0.516
		s-4.094,0.5-6.141,0.5c-1.375,0-3.078-0.156-5.125-0.5s-4.094-0.516-6.141-0.516c-8.875,11.609-21.172,22.703-36.875,33.281
		c-15.703,10.594-36.859,22.703-63.469,36.344c-8.203,4.781-17.594,10.766-28.172,17.922c-10.578,7.172-20.469,15.875-29.688,26.109
		c-9.219,10.25-17.078,22.016-23.562,35.328s-9.719,28.516-9.719,45.578c0,51.203,16.375,90.453,49.156,117.75
		C367.281,551.25,374.266,558.766,379.391,566.266z"/>
	<path display="inline" fill="#FFFFFF" stroke="#000000" stroke-miterlimit="10" d="M358.406,668.672
		c10.906-4.781,24.562-8.531,40.953-11.266c16.375-2.719,32.25-4.938,47.609-6.656c15.359-1.703,29.188-2.719,41.469-3.062
		s20.141-0.516,23.562-0.516c3.406,0,11.266,0.172,23.547,0.516s26.109,1.359,41.469,3.062c15.359,1.719,31.234,3.938,47.625,6.656
		c16.375,2.734,30.375,6.484,41.984,11.266c0-15.016-6.828-29.359-20.484-43.016c-14.344-13.641-33.453-24.562-57.344-32.75
		c-23.906-8.188-49.5-12.297-76.797-12.297c-27.312,0-53.078,4.266-77.312,12.797s-43.516,20.312-57.859,35.328
		C365.906,639.656,359.766,652.969,358.406,668.672z"/>
	<path display="inline" fill="#FFFFFF" stroke="#000000" stroke-miterlimit="10" d="M404.984,680.453
		c-26.281,5.812-41.469,11.094-45.562,15.859c4.094,5.469,19.281,10.938,45.562,16.391s61.953,8.188,107.016,8.188
		c45.047,0,80.719-2.734,107-8.188s42.156-10.922,47.625-16.391c-5.469-4.766-21.344-10.047-47.625-15.859s-61.953-8.719-107-8.719
		C466.938,671.734,431.266,674.641,404.984,680.453z"/>
	<polygon display="inline" points="501.766,422.906 430.078,422.906 430.078,399.359 501.766,399.359 501.766,327.672 
		524.281,327.672 524.281,399.359 595.969,399.359 595.969,422.906 524.281,422.906 524.281,494.594 501.766,494.594 	"/>
	<path display="inline" fill="#FFFFFF" stroke="#000000" stroke-miterlimit="10" d="M479.734,127.484
		c-9.219,9.219-13.812,20.656-13.812,34.297c0,13.656,4.594,25.094,13.812,34.312s19.969,13.828,32.266,13.828
		c13.656,0,25.078-4.609,34.297-13.828s13.828-20.656,13.828-34.312c0-13.641-4.609-25.078-13.828-34.297
		S525.656,113.656,512,113.656C499.703,113.656,488.953,118.266,479.734,127.484z"/>
	<path display="inline" fill="#FFFFFF" stroke="#000000" stroke-miterlimit="10" d="M524.281,790.531
		c0,13.641,3.062,25.406,9.219,35.328c6.141,9.891,13.656,17.906,22.531,24.062c8.875,6.141,18.422,10.75,28.672,13.828
		c10.234,3.047,17.578,4.594,22.016,4.594s14.156,0,29.188,0c15.016,0,31.406-3.766,49.156-11.266
		c10.906-4.781,23.203-8.875,36.859-12.281c13.656-3.422,23.547-5.125,29.688-5.125c19.797,0,39.078,3.406,57.859,10.25
		c18.766,6.812,36.688,18.078,53.766,33.781l38.906-78.844c-17.062-14.344-34.984-24.578-53.766-30.719
		c-18.781-6.156-38.062-9.219-57.844-9.219c-6.156,0-15.875,1.703-29.188,5.125c-13.312,3.406-25.438,7.172-36.359,11.266
		c-17.75,6.812-34.125,10.406-49.141,10.75c-15.031,0.344-22.875,0.516-23.562,0.516c-8.188,0-16.391-0.688-24.578-2.047
		c-8.188-1.375-15.531-3.766-22.016-7.172c-6.484-3.422-11.766-8.547-15.859-15.359c-4.094-6.844-6.141-16.062-6.141-27.656
		c-9.562,1.359-20.5,2.219-32.781,2.562s-21.156,0.516-26.625,0.516V790.531z"/>
</g>
<g id="Layer_10" display="none">
	<path display="inline" d="M465.922,76.797l8.188,11.266c0,0.688,2.391,4.094,7.172,10.234c4.781,6.156,9.891,14,15.359,23.562
		c5.453,9.562,10.906,20.141,16.375,31.734c5.469,11.609,8.875,23.562,10.25,35.844c63.484,2.062,120.141,18.781,169.984,50.188
		c49.828,31.406,92.156,77.484,126.969,138.234s61.438,135.844,79.875,225.281s27.656,193.531,27.656,312.312H338.938
		c0-53.25,6.312-94.906,18.938-124.922c12.625-30.047,33.281-54.281,61.969-72.703c30.719-17.062,54.438-41.469,71.156-73.219
		s28.844-73.219,36.359-124.422c-15.703,22.531-32.594,38.406-50.688,47.625s-33.281,15.859-45.562,19.953l-15.359,7.172
		c-10.25,4.094-21.859,12.969-34.828,26.625s-25.594,27.656-37.875,41.984l-10.25,13.312l-12.281,14.344
		c-12.969,15.703-25.781,28.312-38.406,37.891c-12.625,9.547-30.547,14.328-53.75,14.328c-12.984,0-27.156-2.906-42.516-8.703
		c-15.359-5.812-29.688-14-43-24.578s-24.406-23.031-33.281-37.375c-8.875-14.328-13.312-30.375-13.312-48.125
		c0-35.5,6.312-64.844,18.938-88.062s26.797-45.062,42.516-65.547l7.156-7.156c2.719-4.094,6.812-10.25,12.281-18.438
		s11.094-16.891,16.906-26.109c5.797-9.219,10.75-18.766,14.844-28.672c4.094-9.891,6.156-18.938,6.156-27.141
		c0-27.984,3.062-50.172,9.203-66.562c6.141-16.375,14.672-32.078,25.609-47.094l6.141-9.219c3.406-4.094,6.656-8.188,9.734-12.281
		c3.062-4.094,4.609-7.859,4.609-11.281c0-8.188-0.172-14.156-0.516-17.906s-0.859-7.344-1.547-10.766
		c-1.375-3.406-2.562-7.328-3.578-11.766c-1.031-4.438-1.531-11.766-1.531-22.016c0-19.797,1.703-33.969,5.109-42.5
		s5.797-13.469,7.172-14.844l5.125-12.297l11.266,8.203c0.672,0.688,4.594,3.406,11.766,8.188s15.359,11.438,24.578,19.969
		s18.766,18.438,28.672,29.703s18.266,23.719,25.094,37.359c10.234-2.031,20.469-3.734,30.719-5.109
		c1.359-12.969,4.266-25.25,8.703-36.859s9.047-21.688,13.828-30.219s9.219-15.344,13.312-20.469s6.484-7.688,7.172-7.688
		L465.922,76.797z"/>
	<path display="inline" fill="#FFFFFF" stroke="#000000" stroke-miterlimit="10" d="M179.188,570.875
		c-6.828,5.812-13.656,13.828-20.469,24.062c-6.828,10.25-11.266,19.641-13.312,28.172s-1.359,13.828,2.047,15.859
		c3.406,3.422,8.703,2.234,15.875-3.578c7.156-5.797,14.156-14.156,20.984-25.094c6.141-9.547,10.406-18.594,12.797-27.125
		s1.875-13.828-1.531-15.875C191.484,563.891,186.016,565.078,179.188,570.875z"/>
	<path display="inline" fill="#FFFFFF" stroke="#000000" stroke-miterlimit="10" d="M219.641,720.906
		c3.062,0.672,7.672,0.328,13.828-1.031c1.359-8.188,4.781-15.703,10.25-22.531c4.094-6.828,8.188-14.344,12.281-22.531
		s6.141-18.766,6.141-31.75h-25.594c0,9.562-1.547,17.594-4.609,24.078c-3.078,6.484-6.328,12.453-9.734,17.906
		c-3.406,4.781-6.484,9.906-9.219,15.375s-4.438,10.922-5.109,16.375C212.656,718.844,216.578,720.203,219.641,720.906z"/>
	<path display="inline" fill="#FFFFFF" stroke="#000000" stroke-miterlimit="10" d="M345.078,333.828
		c3.406-1.375,8.875-2.734,16.391-4.109v-26.625c-14.344,3.422-26.797,7.344-37.375,11.781
		c-10.594,4.438-19.641,10.078-27.141,16.906s-14.156,15.359-19.969,25.594c-5.812,10.25-10.75,22.531-14.844,36.859h24.578
		c3.406-10.906,6.656-18.422,9.734-22.516c3.062-4.094,6.656-8.875,10.75-14.344c-0.688,1.375-1.031,3.766-1.031,7.172
		c0,19.125,6.828,28.672,20.484,28.672c4.781,0,8.875-2.547,12.281-7.672s5.125-12.125,5.125-21c0-13.656-3.078-22.531-9.219-26.625
		C338.25,336.562,341.672,335.203,345.078,333.828z"/>
	<path display="inline" fill="#FFFFFF" stroke="#000000" stroke-miterlimit="10" d="M405.5,215.031
		c-18.438,2.062-36.516,5.812-54.266,11.281s-34.141,13.312-49.156,23.547l15.359,20.469c11.594-8.875,25.25-15.531,40.953-19.969
		s31.406-8.016,47.109-10.75V215.031z"/>
	<path display="inline" fill="#FFFFFF" stroke="#000000" stroke-miterlimit="10" d="M523.266,238.594
		c38.906,2.047,73.719,12.281,104.438,30.719s57.688,43,80.906,73.719c23.203,30.719,42.828,66.562,58.875,107.531
		c16.031,40.969,29,85,38.906,132.094c9.906,47.109,17.234,96.094,22.016,146.953c4.781,50.844,7.516,101.875,8.203,153.078h44.031
		c0-53.25-3.078-106.328-9.219-159.234c-6.156-52.906-15.375-103.922-27.656-153.078s-27.984-95.062-47.094-137.734
		c-19.125-42.656-41.984-80.031-68.609-112.125S671.219,263,637.438,244.219c-33.797-18.766-71.859-28.828-114.172-30.203V238.594z"
		/>
	<path display="inline" fill="#FFFFFF" stroke="#000000" stroke-miterlimit="10" d="M566.266,504.828
		c13.656-33.438,20.484-70.984,20.484-112.641h-24.578c0,25.938-2.391,48.297-7.172,67.078s-10.922,33.969-18.422,45.562H566.266z"
		/>
</g>
<g id="Layer_11" display="none">
	<path display="inline" d="M464.891,76.797l9.219,11.266c0.688,0.688,3.406,4.094,8.188,10.234c4.781,6.156,9.891,14,15.359,23.562
		s10.75,20.141,15.875,31.734c5.125,11.609,8.359,23.562,9.734,35.844c63.484,2.062,120.141,18.781,169.984,50.188
		c49.828,31.406,92.156,77.484,126.969,138.234s61.438,135.844,79.875,225.281s27.656,193.531,27.656,312.312H338.938
		c0-53.25,6.141-94.906,18.438-124.922c12.281-30.047,32.766-54.281,61.438-72.703c30.719-17.062,54.609-41.469,71.672-73.219
		s29.016-73.219,35.859-124.422c-15.031,22.531-31.406,38.406-49.156,47.625s-33.109,15.859-46.078,19.953l-16.391,7.172
		c-9.562,4.094-20.828,12.969-33.797,26.625s-25.594,27.656-37.875,41.984l-10.25,13.312l-13.312,15.359
		c-11.609,15.031-23.891,27.297-36.859,36.875c-12.969,9.547-31.062,14.328-54.266,14.328c-12.984,0-27.156-2.906-42.516-8.703
		c-15.359-5.812-29.688-14-43-24.578s-24.578-23.031-33.797-37.375c-9.219-14.328-13.812-30.375-13.812-48.125
		c0-35.5,6.312-64.844,18.938-88.062s26.797-45.062,42.5-65.547l7.172-7.156c2.719-4.094,6.984-10.25,12.797-18.438
		c5.797-8.188,11.422-16.891,16.891-26.109s10.422-18.766,14.859-28.672c4.438-9.891,6.656-18.938,6.656-27.141
		c0-27.984,2.891-50.172,8.703-66.562c5.797-16.375,14.156-32.078,25.078-47.094l6.141-9.219c3.406-4.094,6.828-8.188,10.25-12.281
		c3.406-4.094,5.125-7.859,5.125-11.281c0-8.188-0.172-14.156-0.516-17.906s-0.859-7.344-1.547-10.75s-1.703-7.172-3.062-11.266
		c-1.375-4.094-2.047-11.609-2.047-22.531c0-19.797,1.875-33.969,5.625-42.5s5.969-13.469,6.656-14.844l6.141-12.297l11.266,8.203
		c0.688,0.688,4.438,3.406,11.266,8.188s14.844,11.438,24.062,19.969s18.766,18.438,28.672,29.703s18.266,23.719,25.094,37.359
		c4.781-1.359,9.891-2.375,15.359-3.062c5.453-0.688,10.234-1.359,14.328-2.047c1.375-12.969,4.281-25.25,8.719-36.859
		s9.203-21.688,14.328-30.219s11.781-17.906,19.969-28.156L464.891,76.797z"/>
	<path display="inline" fill="#FFFFFF" stroke="#000000" stroke-miterlimit="10" d="M269.312,707.078
		c8.875-7.172,19.109-17.25,30.719-30.219l13.312-17.406l12.281-11.266c13.656-15.688,27.312-30.875,40.969-45.562
		c13.656-14.672,26.281-24.75,37.891-30.219l17.406-7.156c10.234-4.094,22.016-9.219,35.328-15.359s25.766-15.359,37.375-27.641
		c11.594-12.281,21.328-29.016,29.172-50.188c7.844-21.156,11.781-48.469,11.781-81.922h25.609c0,48.469-2.562,91.312-7.688,128.516
		s-12.797,69.969-23.031,98.297c-10.25,28.344-23.391,52.406-39.438,72.203s-35.328,36.516-57.844,50.172
		c-19.812,12.281-36.031,29.344-48.656,51.203c-12.625,21.828-19.625,54.609-20.984,98.297h514.047
		c0-51.891-1.719-104.453-5.125-157.688c-3.406-53.25-9.719-104.953-18.938-155.141c-9.219-50.172-22.188-97.109-38.906-140.797
		c-16.734-43.688-38.062-81.922-64-114.688s-57.516-58.703-94.719-77.828c-37.219-19.109-81.078-28.672-131.594-28.672
		c0,10.922-1.031,19.453-3.078,25.594c-2.047,6.156-6.828,15.031-14.328,26.625l-21.5-13.312
		c6.812-9.547,10.906-16.547,12.281-20.984s2.062-10.406,2.062-17.922v-12.297c0-14.328-4.109-29.688-12.297-46.078
		c-8.188-16.375-15.703-29.016-22.531-37.891c-5.469,7.516-11.438,18.094-17.922,31.75s-9.719,29.016-9.719,46.078v11.266
		c0,3.422,0.156,8.375,0.5,14.859s1.875,14.5,4.625,24.047l-24.578,7.172c-3.422-11.594-5.469-20.641-6.156-27.125
		s-1.016-11.781-1.016-15.875c-6.156,0.688-12.125,1.531-17.922,2.562c-5.812,1.031-9.734,2.219-11.781,3.578
		c-11.609,6.156-20.312,11.438-26.109,15.875c-5.812,4.438-12.469,12.797-19.969,25.078l-21.5-13.312
		c4.094-6.812,7.672-12.453,10.75-16.891c3.062-4.438,6.141-8.188,9.219-11.266c3.062-3.062,6.656-5.969,10.75-8.703
		c4.094-2.719,9.203-5.797,15.359-9.219c-8.875-16.375-19.969-31.062-33.281-44.031s-24.406-22.859-33.281-29.688
		c-2.734,6.141-4.094,16.375-4.094,30.719c0,9.562,0.172,15.875,0.516,18.938c0.344,3.078,0.844,6.328,1.531,9.734
		c1.359,3.406,2.547,7.328,3.578,11.766s1.547,11.781,1.547,22.016c0,7.516-2.219,14.344-6.656,20.484
		c-4.438,6.156-9.047,12.641-13.828,19.453l-5.109,7.172c-9.562,13.656-16.906,27.484-22.031,41.484s-7.672,33.281-7.672,57.844
		c0,17.75-6.328,37.047-18.953,57.859c-12.625,20.828-25.422,39.766-38.391,56.828l-6.141,9.219
		c-7.516,9.562-14.516,19.109-21,28.672s-12.453,19.625-17.922,30.203c-5.469,10.594-9.734,22.359-12.797,35.328
		c-3.078,12.969-4.609,27.312-4.609,43.016c0,11.609,2.719,22.359,8.188,32.25c5.469,9.906,12.297,18.953,20.484,27.141
		s17.406,15.188,27.656,20.984c10.234,5.812,20.469,9.734,30.719,11.781c0.672-5.453,2.375-10.906,5.109-16.375
		s5.812-10.594,9.219-15.375c3.406-5.453,6.656-11.422,9.734-17.906c3.062-6.484,4.609-14.516,4.609-24.078h25.594
		c0,12.984-2.219,23.562-6.656,31.75s-8.359,15.703-11.766,22.531c-6.844,7.516-10.594,15.031-11.266,22.531
		C248.141,718.5,260.438,714.25,269.312,707.078z"/>
	<path display="inline" d="M179.703,570.875c-7.172,5.812-14.172,13.828-20.984,24.062c-6.828,10.938-11.094,20.656-12.797,29.188
		c-1.719,8.531-0.859,13.484,2.562,14.844c2.719,3.422,7.672,2.234,14.844-3.578c7.156-5.797,14.156-13.812,20.984-24.062
		c6.828-9.562,11.266-18.781,13.312-27.656s1.359-14.328-2.047-16.375C192.172,563.891,186.875,565.078,179.703,570.875z"/>
	<path display="inline" d="M346.109,364.547c0,8.875-2.047,15.875-6.141,21s-8.531,7.672-13.312,7.672
		c-13.656,0-20.484-9.547-20.484-28.672c0-3.406,0.344-5.797,1.031-7.172c-4.094,5.469-7.688,10.25-10.75,14.344
		c-3.078,4.094-6.328,11.609-9.734,22.516h-25.594c4.766-14.328,9.875-26.609,15.344-36.859
		c5.469-10.234,12.125-18.766,19.969-25.594s17.062-12.469,27.656-16.906c10.578-4.438,23.031-8.359,37.375-11.781v26.625
		c-7.516,1.375-12.984,2.734-16.391,4.109s-7.156,2.734-11.25,4.094C342.016,342.703,346.109,351.578,346.109,364.547z"/>
</g>
<g id="Layer_12" display="none">
	<path display="inline" d="M422.391,187.906c5.125-11.938,11.953-22.188,20.484-30.719s18.609-15.359,30.219-20.484
		c11.594-5.125,24.219-7.688,37.875-7.688c12.969,0,25.438,2.562,37.375,7.688s22.359,11.953,31.234,20.484
		s15.859,18.781,20.984,30.719c5.125,11.953,7.688,24.406,7.688,37.375c0,15.031-3.422,29.016-10.234,41.984
		c-6.828,12.969-16.047,24.234-27.641,33.781c36.844,10.25,66.375,28.344,88.562,54.281s33.281,55.297,33.281,88.062
		c0,27.312-7.859,52.047-23.547,74.234c-15.703,22.188-36.531,40.453-62.469,54.781c28.672,7.516,55.125,18.094,79.359,31.75
		s44.891,29.703,61.953,48.141s30.375,38.562,39.938,60.406s14.344,44.703,14.344,68.609v109.562H221.188V781.312
		c0-23.906,4.766-46.766,14.328-68.609s23.047-41.969,40.453-60.406s38.219-34.484,62.453-48.141s50.688-24.234,79.375-31.75
		c-27.312-14.328-48.828-32.594-64.516-54.781c-15.703-22.188-23.547-46.922-23.547-74.234c0-32.766,11.25-62.125,33.781-88.062
		s52.219-44.031,89.094-54.281c-11.609-9.547-20.828-20.812-27.656-33.781s-10.234-26.953-10.234-41.984
		C414.719,212.312,417.266,199.859,422.391,187.906z"/>
</g>
<g id="Layer_13">
	<path d="M422.391,187.906c5.125-11.938,11.953-22.188,20.484-30.719s18.609-15.359,30.219-20.484
		c11.594-5.125,24.219-7.688,37.875-7.688c12.969,0,25.438,2.562,37.375,7.688s22.359,11.953,31.234,20.484
		s15.859,18.781,20.984,30.719c5.125,11.953,7.688,24.406,7.688,37.375c0,15.031-3.422,29.016-10.234,41.984
		c-6.828,12.969-16.047,24.234-27.641,33.781c36.844,10.25,66.375,28.344,88.562,54.281s33.281,55.297,33.281,88.062
		c0,27.312-7.859,52.047-23.547,74.234c-15.703,22.188-36.531,40.453-62.469,54.781c28.672,7.516,55.125,18.094,79.359,31.75
		s44.891,29.703,61.953,48.141s30.375,38.562,39.938,60.406s14.344,44.703,14.344,68.609v109.562H221.188V781.312
		c0-23.906,4.766-46.766,14.328-68.609s23.047-41.969,40.453-60.406s38.219-34.484,62.453-48.141s50.688-24.234,79.375-31.75
		c-27.312-14.328-48.828-32.594-64.516-54.781c-15.703-22.188-23.547-46.922-23.547-74.234c0-32.766,11.25-62.125,33.781-88.062
		s52.219-44.031,89.094-54.281c-11.609-9.547-20.828-20.812-27.656-33.781s-10.234-26.953-10.234-41.984
		C414.719,212.312,417.266,199.859,422.391,187.906z"/>
	<path fill="#FFFFFF" stroke="#000000" stroke-miterlimit="10" d="M243.719,868.344h534.516v-87.031
		c0-23.219-5.297-45.578-15.875-67.062c-10.578-21.5-25.25-40.969-44.031-58.375s-41.297-32.266-67.578-44.547
		s-54.781-20.828-85.5-25.609l-1.031-21.5c31.406-9.547,56.656-25.25,75.781-47.094c19.109-21.844,28.672-46.422,28.672-73.734
		c0-15.688-3.25-30.531-9.734-44.531s-15.703-26.625-27.641-37.891c-11.953-11.266-25.953-20.656-41.984-28.172
		c-16.047-7.5-33.625-12.625-52.734-15.359l-3.078-22.531c15.703-5.453,28.156-14.328,37.375-26.609s13.828-26.625,13.828-43.016
		c0-20.469-7.344-37.875-22.016-52.219c-14.688-14.344-31.922-21.516-51.719-21.516s-36.859,7.172-51.203,21.516
		s-21.5,31.75-21.5,52.219c0,16.391,4.438,30.734,13.312,43.016s21.156,21.156,36.875,26.609l-1.031,22.531
		c-19.797,2.734-37.891,7.859-54.266,15.359c-16.391,7.516-30.391,16.906-41.984,28.172c-11.609,11.266-20.828,23.891-27.656,37.891
		s-10.234,28.844-10.234,44.531c0,27.312,9.547,51.891,28.672,73.734c19.109,21.844,44.703,37.547,76.797,47.094l-2.047,21.5
		c-30.719,4.781-59.062,13.328-85,25.609s-48.469,27.141-67.578,44.547C285,673.281,270.156,692.75,259.578,714.25
		c-10.578,21.484-15.859,44.188-15.859,68.078V868.344z"/>
</g>
</svg>
